<?xml version="1.0" standalone="no"?>
<svg viewBox="0 0 200 200" xmlns="http://www.w3.org/2000/svg">
  <path fill="#CDAE95" d="M28,-55.5C35.3,-44.3,39.4,-34.7,50.6,-25.7C61.8,-16.8,80.1,-8.4,85.8,3.3C91.6,15,84.7,30,75.4,42.1C66,54.3,54,63.6,41,68.7C28,73.9,14,74.9,2.7,70.1C-8.5,65.3,-17,54.8,-30.3,49.8C-43.5,44.8,-61.4,45.3,-66,37.9C-70.5,30.5,-61.7,15.3,-61.8,-0.1C-62,-15.5,-71.2,-30.9,-67.9,-40.5C-64.7,-50.2,-49,-53.9,-35.6,-61.6C-22.2,-69.3,-11.1,-81,-0.4,-80.3C10.4,-79.7,20.7,-66.8,28,-55.5Z" transform="translate(100 100)" />
</svg>
